<?xml version="1.0" encoding="UTF-8" standalone="no"?>
<svg
   xmlns:i="http://ns.adobe.com/AdobeIllustrator/10.0/"
   xmlns:dc="http://purl.org/dc/elements/1.1/"
   xmlns:cc="http://creativecommons.org/ns#"
   xmlns:rdf="http://www.w3.org/1999/02/22-rdf-syntax-ns#"
   xmlns:svg="http://www.w3.org/2000/svg"
   xmlns="http://www.w3.org/2000/svg"
   xmlns:xlink="http://www.w3.org/1999/xlink"
   viewBox="0 0 48 48.000001"
   version="1.1"
   id="svg2"
   height="48"
   width="48">
  <defs
     id="defs4">
    <linearGradient
       id="linearGradient5110">
      <stop
         id="stop5112"
         offset="0"
         style="stop-color:#9a815b;stop-opacity:0.94117647" />
      <stop
         id="stop5114"
         offset="1"
         style="stop-color:#b4986c;stop-opacity:0.94117647" />
    </linearGradient>
    <linearGradient
       id="linearGradient4201">
      <stop
         id="stop4203"
         offset="0"
         style="stop-color:#ffe6d5;stop-opacity:1" />
      <stop
         id="stop4205"
         offset="1"
         style="stop-color:#ffb380;stop-opacity:0;" />
    </linearGradient>
    <linearGradient
       gradientTransform="matrix(0.97078874,0,0,0.97078874,0.90624638,30.000781)"
       gradientUnits="userSpaceOnUse"
       y2="1034.5077"
       x2="12.109203"
       y1="1012.0572"
       x1="1.3258249"
       id="linearGradient4207"
       xlink:href="#linearGradient4201" />
    <linearGradient
       gradientUnits="userSpaceOnUse"
       y2="1033.7372"
       x2="30.625"
       y1="1040.6434"
       x1="46.5625"
       id="linearGradient5116"
       xlink:href="#linearGradient5110" />
  </defs>
  <metadata
     id="metadata7">
    <rdf:RDF>
      <cc:Work
         rdf:about="">
        <dc:format>image/svg+xml</dc:format>
        <dc:type
           rdf:resource="http://purl.org/dc/dcmitype/StillImage" />
        <dc:title></dc:title>
      </cc:Work>
    </rdf:RDF>
  </metadata>
  <g
     transform="translate(0,-1004.3622)"
     id="layer1">
    <path
       style="opacity:1;fill:#a76910;fill-opacity:0.94117647;stroke:none;stroke-width:0.07406557;stroke-linecap:round;stroke-linejoin:round;stroke-miterlimit:4;stroke-dasharray:none;stroke-dashoffset:0;stroke-opacity:1"
       d="m 44.734373,1040.333 -20.733957,11.9707 -20.7339611,-11.9707 9e-7,-23.9414 20.7339602,-11.9708 17.651543,10.1912 c 1.739832,1.0267 3.091545,2.3651 3.082414,4.7885 z"
       id="path5082" />
    <path
       id="path4181"
       d="m 44.054852,1039.9407 -20.054436,11.5784 -20.054439,-11.5784 9e-7,-23.1568 20.0544381,-11.5785 17.073043,9.8572 c 1.682813,0.9931 2.990225,2.2877 2.981393,4.6315 z"
       style="opacity:1;fill:#b4986c;fill-opacity:0.94117647;stroke:#cccccc;stroke-width:0.07085345;stroke-linecap:round;stroke-linejoin:round;stroke-miterlimit:4;stroke-dasharray:none;stroke-dashoffset:0;stroke-opacity:1" />
    <path
       style="opacity:1;fill:#b4986c;fill-opacity:0.94117647;stroke:#cccccc;stroke-width:0.07261688;stroke-linecap:round;stroke-linejoin:round;stroke-miterlimit:4;stroke-dasharray:none;stroke-dashoffset:0;stroke-opacity:1"
       d="m 3.9449506,1016.7531 17.1731944,9.9195 c 1.653098,0.907 2.851412,2.4092 2.867565,4.5266 l 0,20.3048 -20.0407594,-11.5119 z"
       id="path4195" />
    <path
       id="path4199"
       d="m 4.4579313,1017.6952 16.2940337,9.3817 c 1.56847,0.8578 2.705438,2.2784 2.720765,4.2812 l 0,19.2038 -19.0147987,-10.8878 z"
       style="opacity:1;fill:url(#linearGradient4207);fill-opacity:1;stroke:none;stroke-width:0.06878956;stroke-linecap:round;stroke-linejoin:round;stroke-miterlimit:4;stroke-dasharray:none;stroke-dashoffset:0;stroke-opacity:1" />
    <g
       id="text4185"
       style="font-style:normal;font-variant:normal;font-weight:normal;font-stretch:normal;font-size:20.00841713px;line-height:125%;font-family:Ubuntu;-inkscape-font-specification:Ubuntu;letter-spacing:0px;word-spacing:0px;fill:#a80030;fill-opacity:0.94117647;stroke:none;stroke-width:0.2;stroke-linecap:butt;stroke-linejoin:miter;stroke-miterlimit:4;stroke-dasharray:none;stroke-opacity:1"
       transform="matrix(0.97078874,0.53056772,0,0.97078874,-2.1734318,21.158794)">
      <path
         id="path4237"
         style="font-size:11.86013508px;fill:#a80030;fill-opacity:0.94117647;stroke:none;stroke-width:0.2;stroke-miterlimit:4;stroke-dasharray:none"
         d="m 9.8538506,1032.2638 q 0.3913844,0 0.6878874,-0.012 0.308364,-0.024 0.509986,-0.071 l 0,-1.8383 q -0.118601,-0.059 -0.391384,-0.095 -0.260923,-0.047 -0.640447,-0.047 -0.2490633,0 -0.5337066,0.036 -0.2727831,0.036 -0.5099858,0.1541 -0.2253425,0.1068 -0.3795243,0.3084 -0.1541818,0.1898 -0.1541818,0.51 0,0.593 0.3795244,0.8302 0.3795243,0.2253 1.0318317,0.2253 z m -0.094881,-5.5268 q 0.6641674,0 1.1148524,0.1779 0.462546,0.1661 0.735329,0.4863 0.284643,0.3084 0.403244,0.7472 0.118602,0.4269 0.118602,0.9488 l 0,3.8545 q -0.142322,0.024 -0.403245,0.071 -0.249063,0.036 -0.569287,0.071 -0.320223,0.035 -0.699747,0.059 -0.367665,0.036 -0.7353288,0.036 -0.5218459,0 -0.9606709,-0.1067 -0.438825,-0.1067 -0.7590487,-0.3321 -0.3202236,-0.2372 -0.4981256,-0.6167 -0.1779021,-0.3795 -0.1779021,-0.9132 0,-0.51 0.2016223,-0.8777 0.2134825,-0.3677 0.5692865,-0.593 0.3558041,-0.2253 0.8302095,-0.3321 0.4744054,-0.1067 0.9962513,-0.1067 0.1660415,0 0.3439435,0.024 0.177902,0.012 0.332084,0.047 0.166042,0.024 0.284643,0.047 0.118602,0.024 0.166042,0.036 l 0,-0.3084 q 0,-0.2728 -0.0593,-0.5337 -0.0593,-0.2728 -0.213483,-0.4744 -0.154182,-0.2135 -0.426965,-0.3321 -0.260923,-0.1305 -0.6878874,-0.1305 -0.5455663,0 -0.960671,0.083 -0.4032446,0.071 -0.6048669,0.1541 l -0.1304615,-0.9132 q 0.2134825,-0.095 0.7116081,-0.1779 0.4981257,-0.095 1.0792723,-0.095 z" />
      <path
         id="path4239"
         style="font-size:11.86013508px;fill:#a80030;fill-opacity:0.94117647;stroke:none;stroke-width:0.2;stroke-miterlimit:4;stroke-dasharray:none"
         d="m 15.801523,1033.1771 q -1.019972,-0.024 -1.446937,-0.4389 -0.426964,-0.4151 -0.426964,-1.2927 l 0,-7.4007 1.102992,-0.1898 0,7.4126 q 0,0.2728 0.04744,0.4507 0.04744,0.1779 0.154181,0.2846 0.106742,0.1068 0.284644,0.1661 0.177902,0.047 0.438825,0.083 l -0.154182,0.9251 z" />
      <path
         id="path4241"
         style="font-size:11.86013508px;fill:#a80030;fill-opacity:0.94117647;stroke:none;stroke-width:0.2;stroke-miterlimit:4;stroke-dasharray:none"
         d="m 19.044529,1033.1771 q -1.019971,-0.024 -1.446936,-0.4389 -0.426965,-0.4151 -0.426965,-1.2927 l 0,-7.4007 1.102992,-0.1898 0,7.4126 q 0,0.2728 0.04744,0.4507 0.04744,0.1779 0.154182,0.2846 0.106741,0.1068 0.284643,0.1661 0.177902,0.047 0.438825,0.083 l -0.154182,0.9251 z" />
    </g>
    <path
       id="rect4209"
       d="m 11.877149,1021.2973 19.867947,-11.5758 4.169077,2.3962 -19.860362,11.5985 z"
       style="opacity:0.5;fill:#ecc4a9;fill-opacity:1;stroke:none;stroke-width:0.1;stroke-linecap:round;stroke-linejoin:round;stroke-miterlimit:4;stroke-dasharray:none;stroke-dashoffset:0;stroke-opacity:1" />
    <path
       id="path4197"
       d="m 13.516724,1022.2948 20.027978,-11.5632"
       style="fill:none;fill-rule:evenodd;stroke:#ffffff;stroke-width:0.09707887;stroke-linecap:butt;stroke-linejoin:miter;stroke-miterlimit:4;stroke-dasharray:none;stroke-opacity:1" />
    <path
       id="path5084"
       d="m 43.624999,1039.4247 -18.9375,11.0625 -0.0625,-20.375 18.875,-11.3125 z"
       style="fill:url(#linearGradient5116);fill-rule:evenodd;stroke:none;stroke-width:1px;stroke-linecap:butt;stroke-linejoin:miter;stroke-opacity:1;fill-opacity:1" />
    <path
       d="m 27.428612,1031.5674 c 0.09559,-0.2929 0.112709,-0.4685 0.149192,-0.6383 -0.26353,0.337 -0.121473,0.409 -0.149192,0.6383 m 0.486705,-2.0329 c 0.04749,0.439 -0.330177,0.6097 0.08357,0.3198 0.222155,-0.5001 -0.08642,-0.1379 -0.08357,-0.3198 m 7.229442,-3.8443 c 0.205647,-0.075 0.505863,-0.042 0.724758,-0.091 -0.28493,0.024 -0.568434,0.038 -0.848269,0.074 l 0.123511,0.016 m 6.616779,8.1992 -0.04464,0.1125 c -0.08193,0.5826 -0.259454,1.159 -0.530932,1.6935 0.300013,-0.564 0.493431,-1.1809 0.575567,-1.806 m -8.373442,1.8201 c -0.105982,-0.1174 -0.168349,-0.2585 -0.238868,-0.3987 0.06726,0.2468 0.205035,0.459 0.332826,0.675 l -0.09395,-0.2763 m -0.47305,0.018 -0.04301,0.2134 c 0.200348,0.2721 0.359322,0.5667 0.6147,0.7787 -0.18384,-0.3585 -0.320191,-0.5066 -0.571696,-0.9921 m 7.562268,-2.1876 c 0.01835,0.4925 -0.143689,0.7317 -0.290229,1.1549 l -0.26353,0.131 c -0.21543,0.4186 0.0214,0.2657 -0.132886,0.5986 -0.336699,0.299 -1.020286,0.9354 -1.239182,0.9936 -0.159992,-0.01 0.108225,-0.1887 0.143281,-0.2611 -0.450223,0.309 -0.36136,0.4639 -1.050043,0.6521 l -0.01998,-0.045 c -1.697761,0.799 -4.05628,-0.784 -4.025301,-2.9436 -0.01794,0.137 -0.05156,0.1027 -0.08907,0.1577 -0.08764,-1.1109 0.5132,-2.2269 1.526557,-2.6831 0.991142,-0.4905 2.153078,-0.2895 2.862549,0.3726 -0.389689,-0.5107 -1.166012,-1.0522 -2.085411,-1.0021 -0.901056,0.015 -1.74423,0.5872 -2.025491,1.2091 -0.461432,0.2904 -0.515239,1.1201 -0.716198,1.2721 -0.270867,1.9893 0.50892,2.8483 1.8282,3.8595 0.207074,0.1398 0.0583,0.1613 0.08601,0.2676 -0.438198,-0.2051 -0.8393,-0.5148 -1.169477,-0.8941 0.175279,0.2562 0.364214,0.5053 0.608584,0.7009 -0.413535,-0.1396 -0.965664,-1.0014 -1.126472,-1.0364 0.712325,1.2755 2.889657,2.2369 4.030396,1.7597 -0.527875,0.019 -1.198215,0.011 -1.790902,-0.2083 -0.249671,-0.1283 -0.587796,-0.3934 -0.527264,-0.4429 1.556315,0.581 3.163581,0.4398 4.509969,-0.6394 0.342812,-0.2669 0.717013,-0.7209 0.825237,-0.727 -0.162847,0.245 0.02792,0.1179 -0.09722,0.3341 0.340775,-0.5505 -0.148579,-0.2242 0.352597,-0.9506 l 0.185061,0.2547 c -0.06929,-0.4572 0.567618,-1.012 0.502807,-1.7348 0.146133,-0.2208 0.162846,0.2381 0.008,0.7463 0.215022,-0.5639 0.05686,-0.6546 0.111892,-1.12 0.05932,0.1564 0.138185,0.3225 0.178337,0.4879 -0.140223,-0.5452 0.143281,-0.9178 0.2138,-1.2347 -0.0697,-0.031 -0.216245,0.2409 -0.250079,-0.4028 0.005,-0.2796 0.07806,-0.1465 0.105983,-0.2154 -0.05463,-0.032 -0.198718,-0.246 -0.286153,-0.6571 0.06298,-0.097 0.169572,0.2505 0.255988,0.2645 -0.05564,-0.3266 -0.151228,-0.5759 -0.155305,-0.8268 -0.252727,-0.5279 -0.08948,0.071 -0.294101,-0.2267 -0.269033,-0.8384 0.222971,-0.1946 0.256396,-0.5754 0.407218,0.5901 0.639361,1.5053 0.746362,1.8842 -0.08153,-0.4621 -0.212983,-0.9099 -0.373793,-1.343 0.124122,0.052 -0.199532,-0.9504 0.161216,-0.2864 -0.385002,-1.4154 -1.646399,-2.7382 -2.807112,-3.3586 0.14165,0.1298 0.320801,0.2929 0.256804,0.3186 -0.577605,-0.3434 -0.476107,-0.3706 -0.558854,-0.5156 -0.469788,-0.1915 -0.501177,0.015 -0.81199,0 -0.886586,-0.4705 -1.057381,-0.4206 -1.873243,-0.7148 l 0.03709,0.1736 c -0.587185,-0.1957 -0.684199,0.074 -1.318669,0 -0.03852,-0.03 0.203405,-0.1093 0.402735,-0.138 -0.567823,0.075 -0.541327,-0.1121 -1.096921,0.02 0.136758,-0.096 0.281874,-0.1598 0.427803,-0.2413 -0.462858,0.028 -1.10548,0.2694 -0.90717,0.05 -0.755127,0.3372 -2.096418,0.8103 -2.849099,1.516 l -0.02365,-0.1581 c -0.344851,0.4139 -1.503934,1.2364 -1.596262,1.7729 l -0.09233,0.021 c -0.179151,0.3038 -0.295528,0.6481 -0.43779,0.9605 -0.234588,0.4001 -0.344035,0.1541 -0.31061,0.2169 -0.461636,0.9359 -0.691333,1.7222 -0.889235,2.3674 0.141039,0.211 0.0034,1.2702 0.05666,2.1179 -0.23153,4.1871 2.938572,8.2522 6.403796,9.1906 0.507901,0.1819 1.263027,0.1754 1.905445,0.1933 -0.757775,-0.2168 -0.855606,-0.1147 -1.594223,-0.3722 -0.532563,-0.251 -0.649144,-0.5374 -1.026605,-0.8648 l 0.149395,0.2638 c -0.73984,-0.2619 -0.430249,-0.324 -1.032312,-0.5146 l 0.159587,-0.208 c -0.239888,-0.018 -0.635285,-0.4041 -0.743306,-0.6182 l -0.26251,0.011 c -0.315096,-0.3885 -0.48324,-0.6691 -0.470808,-0.8866 l -0.08479,0.1513 c -0.09599,-0.165 -1.159899,-1.4589 -0.607973,-1.1577 -0.102518,-0.093 -0.238869,-0.1522 -0.386632,-0.421 l 0.1123,-0.1283 c -0.265161,-0.3417 -0.488743,-0.7797 -0.471623,-0.9257 0.14165,0.1912 0.239887,0.2271 0.33731,0.2599 -0.670747,-1.664 -0.708452,-0.091 -1.21615,-1.6937 l 0.107205,-0.01 c -0.08214,-0.1245 -0.132478,-0.2588 -0.198513,-0.3911 l 0.04688,-0.4657 c -0.482628,-0.5576 -0.134924,-2.3735 -0.06501,-3.369 0.04789,-0.4048 0.402938,-0.8359 0.672582,-1.5119 l -0.164274,-0.028 c 0.31428,-0.5478 1.793961,-2.201 2.479586,-2.1161 0.332012,-0.4171 -0.06603,0 -0.131051,-0.1064 0.729445,-0.7548 0.958735,-0.5332 1.450942,-0.6692 0.530525,-0.3149 -0.455521,0.1231 -0.204016,-0.12 0.917768,-0.2341 0.650163,-0.5327 1.847155,-0.6516 0.126363,0.072 -0.292878,0.1109 -0.398047,0.204 0.764298,-0.3742 2.419054,-0.2888 3.49437,0.2076 1.246722,0.583 2.648341,2.3059 2.703779,3.9267 l 0.06298,0.016 c -0.03179,0.6445 0.09865,1.3898 -0.12779,2.0742 l 0.153064,-0.3242 m -5.068619,-7.6129 -0.11434,0.024 0.106595,-0.01 0.0078,-0.015 m -0.324469,-0.09 c 0.162642,0.029 0.351373,0.052 0.324265,0.09 0.17854,-0.04 0.218691,-0.075 -0.324265,-0.09 m 3.393073,7.4961 c 0.03709,-0.5485 -0.107817,-0.3748 -0.156528,-0.1659 0.05666,0.03 0.101703,0.3868 0.156528,0.1659 m -0.603896,1.5702 c 0.182004,-0.2505 0.314075,-0.5245 0.360748,-0.8078 -0.04097,0.2019 -0.150007,0.376 -0.253543,0.5604 -0.569249,0.3584 -0.05381,-0.2128 -4.08e-4,-0.4304 -0.611845,0.7711 -0.08438,0.4623 -0.106797,0.6778 m -1.633967,0.4074 c -0.304497,0.01 0.05727,0.1566 0.45491,0.2179 0.110262,-0.086 0.209315,-0.1725 0.298177,-0.2568 -0.247225,0.06 -0.499136,0.062 -0.753087,0.039"
       style="fill:#a80030"
       id="path4893" />
    <g
       transform="matrix(0.24040411,0.14145469,0,0.27911802,3.528593,730.05805)"
       id="g5000">
      <path
         i:knockout="Off"
         d="m 19.129219,1083.4935 c -0.045,0.047 -0.045,7.506 -0.138,9.453 -0.092,1.574 -0.232,4.957 -3.568,4.957 -3.429,0 -4.263,-3.939 -4.541,-5.652 -0.324,-1.9 -0.324,-3.477 -0.324,-4.17 0,-2.225 0.139,-8.436 5.375,-8.436 1.576,0 2.456,0.465 3.151,0.834 l 0.045,3.014 z m -13.4369998,5.469 c 0,13.066 6.9509998,13.066 7.9699998,13.066 2.873,0 4.727,-1.576 5.514,-4.309 l 0.093,4.123 c 0.881,-0.047 1.761,-0.139 3.197,-0.139 0.51,0 0.926,0 1.298,0.047 0.371,0 0.741,0.045 1.158,0.092 -0.741,-1.482 -1.297,-4.818 -1.297,-12.049 0,-7.043 0,-18.951 0.602,-22.566 -1.667,0.789 -3.105,1.299 -6.256,1.576 1.251,1.344 1.251,2.039 1.251,8.154 -0.879,-0.277 -1.992,-0.602 -3.892,-0.602 -8.2939998,0 -9.6379998,7.23 -9.6379998,12.607"
         id="path4895" />
      <path
         i:knockout="Off"
         d="m 30.822219,1086.5965 c 0.047,-3.846 0.835,-7.275 4.124,-7.275 3.615,0 3.891,3.984 3.799,7.275 l -7.923,0 z m 12.51,0.465 c 0,-5.422 -1.065,-10.752 -7.923,-10.752 -9.452,0 -9.452,10.475 -9.452,12.697 0,9.406 4.216,13.113 11.306,13.113 3.149,0 4.68,-0.461 5.514,-0.695 -0.046,-1.668 0.185,-2.734 0.465,-4.17 -0.975,0.604 -2.226,1.391 -5.006,1.391 -7.229,0 -7.322,-6.582 -7.322,-8.852 l 12.328,0 0.09,-2.732"
         id="path4897" />
      <path
         i:knockout="Off"
         d="m 58.407219,1089.0535 c 0,4.309 -0.787,10.102 -6.162,10.102 -0.742,0 -1.668,-0.141 -2.27,-0.279 -0.093,-1.668 -0.093,-4.541 -0.093,-7.877 0,-3.986 0.416,-6.068 0.742,-7.09 0.972,-3.289 3.15,-3.334 3.566,-3.334 3.522,0 4.217,4.865 4.217,8.478 z m -13.298,5.051 c 0,3.43 0,5.375 -0.556,6.857 1.9,0.742 4.262,1.158 7.09,1.158 1.807,0 7.043,0 9.869,-5.791 1.344,-2.688 1.807,-6.303 1.807,-9.037 0,-1.668 -0.186,-5.328 -1.529,-7.646 -1.296,-2.176 -3.382,-3.289 -5.605,-3.289 -4.449,0 -5.746,3.707 -6.44,5.607 0,-2.363 0.045,-10.611 0.415,-14.828 -3.011,1.391 -4.866,1.621 -6.857,1.807 1.807,0.74 1.807,3.801 1.807,13.764 l 0,11.398"
         id="path4899" />
    </g>
  </g>
</svg>
