<?xml version="1.0" encoding="UTF-8" standalone="no"?>
<svg
   xmlns:dc="http://purl.org/dc/elements/1.1/"
   xmlns:cc="http://creativecommons.org/ns#"
   xmlns:rdf="http://www.w3.org/1999/02/22-rdf-syntax-ns#"
   xmlns:svg="http://www.w3.org/2000/svg"
   xmlns="http://www.w3.org/2000/svg"
   xmlns:xlink="http://www.w3.org/1999/xlink"
   viewBox="0 0 48 48.000001"
   version="1.1"
   id="svg2"
   height="48"
   width="48">
  <defs
     id="defs4">
    <linearGradient
       id="linearGradient4201">
      <stop
         id="stop4203"
         offset="0"
         style="stop-color:#ffe6d5;stop-opacity:1" />
      <stop
         id="stop4205"
         offset="1"
         style="stop-color:#ffb380;stop-opacity:0;" />
    </linearGradient>
    <linearGradient
       gradientTransform="translate(0.21133679,-0.0401495)"
       gradientUnits="userSpaceOnUse"
       y2="1034.5077"
       x2="12.109203"
       y1="1012.0572"
       x1="1.3258249"
       id="linearGradient4207"
       xlink:href="#linearGradient4201" />
  </defs>
  <metadata
     id="metadata7">
    <rdf:RDF>
      <cc:Work
         rdf:about="">
        <dc:format>image/svg+xml</dc:format>
        <dc:type
           rdf:resource="http://purl.org/dc/dcmitype/StillImage" />
        <dc:title></dc:title>
      </cc:Work>
    </rdf:RDF>
  </metadata>
  <g
     transform="translate(0,-1004.3622)"
     id="layer1">
    <path
       id="path4181"
       d="m 44.658294,1040.2891 -20.657879,11.9268 -20.6578814,-11.9268 9e-7,-23.8536 20.6578805,-11.9269 17.586775,10.1538 c 1.733449,1.023 3.080202,2.3565 3.071104,4.7709 z"
       style="opacity:1;fill:#ff9955;fill-opacity:1;stroke:#ffffff;stroke-width:0.07298545;stroke-linecap:round;stroke-linejoin:round;stroke-miterlimit:4;stroke-dasharray:none;stroke-dashoffset:0;stroke-opacity:1" />
    <path
       style="opacity:1;fill:#ff9955;fill-opacity:0.78431373;stroke:#ffffff;stroke-width:0.07261688;stroke-linecap:round;stroke-linejoin:round;stroke-miterlimit:4;stroke-dasharray:none;stroke-dashoffset:0;stroke-opacity:1"
       d="m 3.3414763,1016.4038 17.6899397,10.218 c 1.70284,0.9343 2.937212,2.4816 2.953851,4.6628 l 0,20.9157 -20.6437907,-11.8583 z"
       id="path4195" />
    <path
       id="path4199"
       d="m 3.8698927,1017.3742 16.7843253,9.664 c 1.615665,0.8836 2.786845,2.347 2.802633,4.41 l 0,19.7817 -19.5869583,-11.2154 z"
       style="opacity:1;fill:url(#linearGradient4207);fill-opacity:1;stroke:none;stroke-width:0.06878956;stroke-linecap:round;stroke-linejoin:round;stroke-miterlimit:4;stroke-dasharray:none;stroke-dashoffset:0;stroke-opacity:1" />
    <g
       id="text4185"
       style="font-style:normal;font-variant:normal;font-weight:normal;font-stretch:normal;font-size:20.00841713px;line-height:125%;font-family:Ubuntu;-inkscape-font-specification:Ubuntu;letter-spacing:0px;word-spacing:0px;fill:#ff0000;fill-opacity:1;stroke:#ffffff;stroke-width:0.2;stroke-linecap:butt;stroke-linejoin:miter;stroke-miterlimit:4;stroke-dasharray:none;stroke-opacity:1"
       transform="matrix(1,0.54653263,0,1,0,0)">
      <path
         id="path4237"
         style="font-size:11.86013508px;fill:#ff0000;stroke:#ffffff;stroke-width:0.2;stroke-miterlimit:4;stroke-dasharray:none"
         d="m 9.8538506,1032.2638 q 0.3913844,0 0.6878874,-0.012 0.308364,-0.024 0.509986,-0.071 l 0,-1.8383 q -0.118601,-0.059 -0.391384,-0.095 -0.260923,-0.047 -0.640447,-0.047 -0.2490633,0 -0.5337066,0.036 -0.2727831,0.036 -0.5099858,0.1541 -0.2253425,0.1068 -0.3795243,0.3084 -0.1541818,0.1898 -0.1541818,0.51 0,0.593 0.3795244,0.8302 0.3795243,0.2253 1.0318317,0.2253 z m -0.094881,-5.5268 q 0.6641675,0 1.1148525,0.1779 0.462546,0.1661 0.735329,0.4863 0.284643,0.3084 0.403244,0.7472 0.118602,0.4269 0.118602,0.9488 l 0,3.8545 q -0.142322,0.024 -0.403245,0.071 -0.249063,0.036 -0.569287,0.071 -0.320223,0.035 -0.699747,0.059 -0.367665,0.036 -0.7353289,0.036 -0.5218459,0 -0.9606709,-0.1067 -0.438825,-0.1067 -0.7590487,-0.3321 -0.3202236,-0.2372 -0.4981256,-0.6167 -0.1779021,-0.3795 -0.1779021,-0.9132 0,-0.51 0.2016223,-0.8777 0.2134825,-0.3677 0.5692865,-0.593 0.3558041,-0.2253 0.8302095,-0.3321 0.4744054,-0.1067 0.9962513,-0.1067 0.1660416,0 0.3439436,0.024 0.177902,0.012 0.332084,0.047 0.166042,0.024 0.284643,0.047 0.118602,0.024 0.166042,0.036 l 0,-0.3084 q 0,-0.2728 -0.0593,-0.5337 -0.0593,-0.2728 -0.213483,-0.4744 -0.154182,-0.2135 -0.426965,-0.3321 -0.260923,-0.1305 -0.6878875,-0.1305 -0.5455663,0 -0.960671,0.083 -0.4032446,0.071 -0.6048669,0.1541 l -0.1304615,-0.9132 q 0.2134825,-0.095 0.7116081,-0.1779 0.4981257,-0.095 1.0792723,-0.095 z" />
      <path
         id="path4239"
         style="font-size:11.86013508px;fill:#ff0000;stroke:#ffffff;stroke-width:0.2;stroke-miterlimit:4;stroke-dasharray:none"
         d="m 15.801523,1033.1771 q -1.019972,-0.024 -1.446937,-0.4389 -0.426964,-0.4151 -0.426964,-1.2927 l 0,-7.4007 1.102992,-0.1898 0,7.4126 q 0,0.2728 0.04744,0.4507 0.04744,0.1779 0.154181,0.2846 0.106742,0.1068 0.284644,0.1661 0.177902,0.047 0.438825,0.083 l -0.154182,0.9251 z" />
      <path
         id="path4241"
         style="font-size:11.86013508px;fill:#ff0000;stroke:#ffffff;stroke-width:0.2;stroke-miterlimit:4;stroke-dasharray:none"
         d="m 19.044529,1033.1771 q -1.019971,-0.024 -1.446936,-0.4389 -0.426965,-0.4151 -0.426965,-1.2927 l 0,-7.4007 1.102992,-0.1898 0,7.4126 q 0,0.2728 0.04744,0.4507 0.04744,0.1779 0.154182,0.2846 0.106741,0.1068 0.284643,0.1661 0.177902,0.047 0.438825,0.083 l -0.154182,0.9251 z" />
    </g>
    <g
       id="text4189"
       style="font-style:normal;font-variant:normal;font-weight:normal;font-stretch:normal;font-size:12.25271606px;line-height:125%;font-family:Ubuntu;-inkscape-font-specification:Ubuntu;letter-spacing:0px;word-spacing:0px;fill:#ffffff;fill-opacity:1;stroke:none;stroke-width:1px;stroke-linecap:butt;stroke-linejoin:miter;stroke-opacity:1"
       transform="matrix(1,-0.57015234,0,1,0,0)">
      <path
         id="path4244"
         style="font-size:11.86013508px;fill:#ffffff"
         d="m 29.1121,1055.3062 q -0.201622,-0.1661 -0.581147,-0.3203 -0.379524,-0.1541 -0.830209,-0.1541 -0.474406,0 -0.81835,0.1779 -0.332083,0.166 -0.545566,0.4744 -0.213482,0.2965 -0.308363,0.7116 -0.09488,0.4151 -0.09488,0.8895 0,1.0793 0.533706,1.6723 0.533706,0.5811 1.423216,0.5811 0.450685,0 0.747188,-0.036 0.308364,-0.047 0.474406,-0.095 l 0,-3.902 z m 0,-4.1511 1.102992,-0.1897 0,9.0255 q -0.379524,0.1068 -0.972531,0.2135 -0.593006,0.1067 -1.363915,0.1067 -0.711608,0 -1.280895,-0.2253 -0.569286,-0.2253 -0.972531,-0.6404 -0.403244,-0.4151 -0.628587,-1.0082 -0.213482,-0.6048 -0.213482,-1.352 0,-0.7116 0.177902,-1.3046 0.189762,-0.593 0.545566,-1.02 0.355804,-0.427 0.86579,-0.6642 0.521846,-0.2372 1.186013,-0.2372 0.533706,0 0.936951,0.1424 0.415105,0.1423 0.616727,0.2727 l 0,-3.1192 z" />
      <path
         id="path4246"
         style="font-size:11.86013508px;fill:#ffffff"
         d="m 31.778777,1057.097 q 0,-0.8183 0.237203,-1.4232 0.237202,-0.6167 0.628587,-1.0199 0.391384,-0.4033 0.90137,-0.6049 0.509986,-0.2016 1.043692,-0.2016 1.245314,0 1.909482,0.7827 0.664167,0.7709 0.664167,2.3602 0,0.071 0,0.1898 0,0.1067 -0.01186,0.2016 l -4.222208,0 q 0.07116,0.9607 0.557426,1.4588 0.486266,0.4981 1.518098,0.4981 0.581146,0 0.972531,-0.095 0.403244,-0.1067 0.604867,-0.2016 l 0.154181,0.9251 q -0.201622,0.1067 -0.711608,0.2253 -0.498125,0.1186 -1.138573,0.1186 -0.806489,0 -1.399496,-0.2372 -0.581146,-0.249 -0.96067,-0.676 -0.379525,-0.427 -0.569287,-1.0081 -0.177902,-0.593 -0.177902,-1.2928 z m 4.234068,-0.6048 q 0.01186,-0.7472 -0.379524,-1.2216 -0.379524,-0.4863 -1.055552,-0.4863 -0.379524,0 -0.676028,0.1542 -0.284643,0.1423 -0.486265,0.3795 -0.201623,0.2372 -0.320224,0.5456 -0.106741,0.3084 -0.142322,0.6286 l 3.059915,0 z" />
      <path
         id="path4248"
         style="font-size:11.86013508px;fill:#ffffff"
         d="m 39.850711,1054.2743 q 0.201622,-0.1304 0.604867,-0.2727 0.415104,-0.1424 0.94881,-0.1424 0.664168,0 1.174154,0.2372 0.521846,0.2372 0.87765,0.6642 0.355804,0.427 0.533706,1.02 0.189762,0.593 0.189762,1.3046 0,0.7472 -0.225343,1.352 -0.213482,0.5931 -0.616727,1.0082 -0.403244,0.4151 -0.972531,0.6404 -0.569286,0.2253 -1.280894,0.2253 -0.770909,0 -1.363916,-0.1067 -0.593007,-0.1067 -0.972531,-0.2135 l 0,-8.8358 1.102993,-0.1897 0,3.3089 z m 0,4.9339 q 0.166042,0.047 0.462545,0.095 0.308363,0.036 0.759049,0.036 0.88951,0 1.423216,-0.5811 0.533706,-0.593 0.533706,-1.6723 0,-0.4744 -0.09488,-0.8895 -0.09488,-0.4151 -0.308364,-0.7116 -0.213482,-0.3084 -0.557426,-0.4744 -0.332084,-0.1779 -0.806489,-0.1779 -0.450685,0 -0.83021,0.1541 -0.379524,0.1542 -0.581146,0.3203 l 0,3.902 z" />
    </g>
    <path
       id="rect4209"
       d="m 11.512356,1021.0847 20.465779,-11.9241 4.294525,2.4683 -20.457965,11.9475 z"
       style="opacity:1;fill:#ffb380;fill-opacity:1;stroke:none;stroke-width:0.1;stroke-linecap:round;stroke-linejoin:round;stroke-miterlimit:4;stroke-dasharray:none;stroke-dashoffset:0;stroke-opacity:1" />
    <path
       id="path4197"
       d="m 13.201267,1022.1122 20.630624,-11.9111"
       style="fill:none;fill-rule:evenodd;stroke:#ffffff;stroke-width:0.1;stroke-linecap:butt;stroke-linejoin:miter;stroke-miterlimit:4;stroke-dasharray:none;stroke-opacity:1" />
  </g>
</svg>
