<?xml version="1.0" encoding="UTF-8" standalone="no"?>
<svg
   xmlns:i="http://ns.adobe.com/AdobeIllustrator/10.0/"
   xmlns:dc="http://purl.org/dc/elements/1.1/"
   xmlns:cc="http://creativecommons.org/ns#"
   xmlns:rdf="http://www.w3.org/1999/02/22-rdf-syntax-ns#"
   xmlns:svg="http://www.w3.org/2000/svg"
   xmlns="http://www.w3.org/2000/svg"
   xmlns:xlink="http://www.w3.org/1999/xlink"
   viewBox="0 0 48 48.000001"
   version="1.1"
   id="svg2"
   height="48"
   width="48">
  <defs
     id="defs4">
    <linearGradient
       id="linearGradient5110">
      <stop
         id="stop5112"
         offset="0"
         style="stop-color:#9a815b;stop-opacity:0.94117647" />
      <stop
         id="stop5114"
         offset="1"
         style="stop-color:#b4986c;stop-opacity:0.94117647" />
    </linearGradient>
    <linearGradient
       id="linearGradient4201">
      <stop
         id="stop4203"
         offset="0"
         style="stop-color:#ffe6d5;stop-opacity:1" />
      <stop
         id="stop4205"
         offset="1"
         style="stop-color:#ffb380;stop-opacity:0;" />
    </linearGradient>
    <linearGradient
       gradientTransform="matrix(0.97078874,0,0,0.97078874,-2.0937536,30.000781)"
       gradientUnits="userSpaceOnUse"
       y2="1034.5077"
       x2="12.109203"
       y1="1012.0572"
       x1="1.3258249"
       id="linearGradient4207"
       xlink:href="#linearGradient4201" />
    <linearGradient
       gradientTransform="translate(-2.9999999,0)"
       gradientUnits="userSpaceOnUse"
       y2="1033.7372"
       x2="30.625"
       y1="1040.6434"
       x1="46.5625"
       id="linearGradient5116"
       xlink:href="#linearGradient5110" />
    <linearGradient
       id="linearGradient6549">
      <stop
         style="stop-color:#8ae234;stop-opacity:1"
         offset="0"
         id="stop6551" />
      <stop
         style="stop-color:#73d216;stop-opacity:1"
         offset="1"
         id="stop6553" />
    </linearGradient>
    <linearGradient
       id="linearGradient2064">
      <stop
         id="stop2066"
         offset="0"
         style="stop-color:white;stop-opacity:1;" />
      <stop
         style="stop-color:#555753;stop-opacity:0.60000002;"
         offset="0.5"
         id="stop2070" />
      <stop
         id="stop2068"
         offset="1"
         style="stop-color:#555753;stop-opacity:0;" />
    </linearGradient>
    <linearGradient
       id="linearGradient9641">
      <stop
         style="stop-color:white;stop-opacity:1"
         offset="0"
         id="stop9643" />
      <stop
         style="stop-color:#888a85;stop-opacity:1"
         offset="1"
         id="stop9645" />
    </linearGradient>
    <linearGradient
       id="linearGradient9633">
      <stop
         style="stop-color:#eeeeec;stop-opacity:1"
         offset="0"
         id="stop9635" />
      <stop
         style="stop-color:#888a85;stop-opacity:1"
         offset="1"
         id="stop9639" />
    </linearGradient>
    <linearGradient
       id="linearGradient9613">
      <stop
         style="stop-color:white;stop-opacity:1"
         offset="0"
         id="stop9615" />
      <stop
         id="stop9619"
         offset="0.5"
         style="stop-color:white;stop-opacity:1;" />
      <stop
         style="stop-color:#cccfca;stop-opacity:1"
         offset="1"
         id="stop9617" />
    </linearGradient>
    <linearGradient
       id="linearGradient8710">
      <stop
         style="stop-color:black;stop-opacity:1;"
         offset="0"
         id="stop8712" />
      <stop
         style="stop-color:white;stop-opacity:1;"
         offset="1"
         id="stop8714" />
    </linearGradient>
    <linearGradient
       id="linearGradient8631">
      <stop
         id="stop8633"
         offset="0"
         style="stop-color:#eeeeec;stop-opacity:1" />
      <stop
         style="stop-color:#eeeeec;stop-opacity:1;"
         offset="0.2"
         id="stop8637" />
      <stop
         id="stop8635"
         offset="1"
         style="stop-color:#babdb6;stop-opacity:1" />
    </linearGradient>
    <linearGradient
       id="linearGradient8625">
      <stop
         id="stop8627"
         offset="0"
         style="stop-color:white;stop-opacity:1" />
      <stop
         id="stop8629"
         offset="1"
         style="stop-color:#babdb6;stop-opacity:1" />
    </linearGradient>
    <linearGradient
       id="linearGradient8613">
      <stop
         style="stop-color:#babdb6;stop-opacity:1"
         offset="0"
         id="stop8615" />
      <stop
         style="stop-color:#2e3436;stop-opacity:1"
         offset="1"
         id="stop8617" />
    </linearGradient>
    <linearGradient
       id="linearGradient5740">
      <stop
         style="stop-color:#d0d0cb;stop-opacity:1;"
         offset="0"
         id="stop5742" />
      <stop
         style="stop-color:#babdb6;stop-opacity:1"
         offset="1"
         id="stop5744" />
    </linearGradient>
    <linearGradient
       id="linearGradient2899">
      <stop
         id="stop2901"
         offset="0"
         style="stop-color:#555753;stop-opacity:1" />
      <stop
         id="stop2903"
         offset="1"
         style="stop-color:#2e3436;stop-opacity:1" />
    </linearGradient>
    <linearGradient
       id="linearGradient3468">
      <stop
         style="stop-color:#fdfdfc;stop-opacity:1"
         offset="0"
         id="stop3470" />
      <stop
         style="stop-color:white;stop-opacity:0.37121212"
         offset="1"
         id="stop3472" />
    </linearGradient>
    <linearGradient
       id="linearGradient2909">
      <stop
         style="stop-color:white;stop-opacity:0;"
         offset="0"
         id="stop2911" />
      <stop
         id="stop2917"
         offset="0.5"
         style="stop-color:white;stop-opacity:1;" />
      <stop
         style="stop-color:white;stop-opacity:0;"
         offset="1"
         id="stop2913" />
    </linearGradient>
    <linearGradient
       id="linearGradient2839">
      <stop
         style="stop-color:white;stop-opacity:0.25773194;"
         offset="0"
         id="stop2841" />
      <stop
         id="stop2847"
         offset="0.5472973"
         style="stop-color:white;stop-opacity:1;" />
      <stop
         style="stop-color:white;stop-opacity:0.24705882;"
         offset="0.66243607"
         id="stop2849" />
      <stop
         id="stop2851"
         offset="0.875"
         style="stop-color:white;stop-opacity:0.83505154;" />
      <stop
         style="stop-color:white;stop-opacity:0;"
         offset="1"
         id="stop2843" />
    </linearGradient>
    <linearGradient
       id="linearGradient2900">
      <stop
         style="stop-color:black;stop-opacity:0;"
         offset="0"
         id="stop2902" />
      <stop
         id="stop2908"
         offset="0.5"
         style="stop-color:black;stop-opacity:1;" />
      <stop
         style="stop-color:black;stop-opacity:0;"
         offset="1"
         id="stop2904" />
    </linearGradient>
    <linearGradient
       xlink:href="#linearGradient8631"
       id="linearGradient5865"
       x1="24"
       y1="36.638382"
       x2="25.818018"
       y2="6.8314762"
       gradientUnits="userSpaceOnUse" />
    <linearGradient
       xlink:href="#linearGradient2839"
       id="linearGradient7658"
       gradientUnits="userSpaceOnUse"
       x1="27.057796"
       y1="12.669416"
       x2="32.042896"
       y2="31.219666" />
  </defs>
  <metadata
     id="metadata7">
    <rdf:RDF>
      <cc:Work
         rdf:about="">
        <dc:format>image/svg+xml</dc:format>
        <dc:type
           rdf:resource="http://purl.org/dc/dcmitype/StillImage" />
        <dc:title></dc:title>
      </cc:Work>
    </rdf:RDF>
  </metadata>
  <g
     transform="translate(0,-1004.3622)"
     id="layer1">
    <path
       style="opacity:1;fill:#a76910;fill-opacity:0.94117647;stroke:none;stroke-width:0.07406557;stroke-linecap:round;stroke-linejoin:round;stroke-miterlimit:4;stroke-dasharray:none;stroke-dashoffset:0;stroke-opacity:1"
       d="m 41.734373,1040.333 -20.733957,11.9707 -20.73396102,-11.9707 9e-7,-23.9414 20.73396012,-11.9708 17.651543,10.1912 c 1.739832,1.0267 3.091545,2.3651 3.082414,4.7885 z"
       id="path5082" />
    <path
       id="path4181"
       d="m 41.054852,1039.9407 -20.054436,11.5784 -20.05443889,-11.5784 9e-7,-23.1568 20.05443799,-11.5785 17.073043,9.8572 c 1.682813,0.9931 2.990225,2.2877 2.981393,4.6315 z"
       style="opacity:1;fill:#b4986c;fill-opacity:0.94117647;stroke:#cccccc;stroke-width:0.07085345;stroke-linecap:round;stroke-linejoin:round;stroke-miterlimit:4;stroke-dasharray:none;stroke-dashoffset:0;stroke-opacity:1" />
    <path
       style="opacity:1;fill:#b4986c;fill-opacity:0.94117647;stroke:#cccccc;stroke-width:0.07261688;stroke-linecap:round;stroke-linejoin:round;stroke-miterlimit:4;stroke-dasharray:none;stroke-dashoffset:0;stroke-opacity:1"
       d="m 0.94495071,1016.7531 17.17319429,9.9195 c 1.653098,0.907 2.851412,2.4092 2.867565,4.5266 l 0,20.3048 -20.04075929,-11.5119 z"
       id="path4195" />
    <path
       id="path4199"
       d="m 1.4579314,1017.6952 16.2940336,9.3817 c 1.56847,0.8578 2.705438,2.2784 2.720765,4.2812 l 0,19.2038 -19.0147986,-10.8878 z"
       style="opacity:1;fill:url(#linearGradient4207);fill-opacity:1;stroke:none;stroke-width:0.06878956;stroke-linecap:round;stroke-linejoin:round;stroke-miterlimit:4;stroke-dasharray:none;stroke-dashoffset:0;stroke-opacity:1" />
    <g
       id="text4185"
       style="font-style:normal;font-variant:normal;font-weight:normal;font-stretch:normal;font-size:20.00841713px;line-height:125%;font-family:Ubuntu;-inkscape-font-specification:Ubuntu;letter-spacing:0px;word-spacing:0px;fill:#a80030;fill-opacity:0.94117647;stroke:none;stroke-width:0.2;stroke-linecap:butt;stroke-linejoin:miter;stroke-miterlimit:4;stroke-dasharray:none;stroke-opacity:1"
       transform="matrix(0.97078874,0.53056772,0,0.97078874,-5.1734317,21.158794)">
      <path
         id="path4237"
         style="font-size:11.86013508px;fill:#a80030;fill-opacity:0.94117647;stroke:none;stroke-width:0.2;stroke-miterlimit:4;stroke-dasharray:none"
         d="m 9.8538506,1032.2638 q 0.3913844,0 0.6878874,-0.012 0.308364,-0.024 0.509986,-0.071 l 0,-1.8383 q -0.118601,-0.059 -0.391384,-0.095 -0.260923,-0.047 -0.640447,-0.047 -0.2490633,0 -0.5337066,0.036 -0.2727831,0.036 -0.5099858,0.1541 -0.2253425,0.1068 -0.3795243,0.3084 -0.1541818,0.1898 -0.1541818,0.51 0,0.593 0.3795244,0.8302 0.3795243,0.2253 1.0318317,0.2253 z m -0.094881,-5.5268 q 0.6641674,0 1.1148524,0.1779 0.462546,0.1661 0.735329,0.4863 0.284643,0.3084 0.403244,0.7472 0.118602,0.4269 0.118602,0.9488 l 0,3.8545 q -0.142322,0.024 -0.403245,0.071 -0.249063,0.036 -0.569287,0.071 -0.320223,0.035 -0.699747,0.059 -0.367665,0.036 -0.7353288,0.036 -0.5218459,0 -0.9606709,-0.1067 -0.438825,-0.1067 -0.7590487,-0.3321 -0.3202236,-0.2372 -0.4981256,-0.6167 -0.1779021,-0.3795 -0.1779021,-0.9132 0,-0.51 0.2016223,-0.8777 0.2134825,-0.3677 0.5692865,-0.593 0.3558041,-0.2253 0.8302095,-0.3321 0.4744054,-0.1067 0.9962513,-0.1067 0.1660415,0 0.3439435,0.024 0.177902,0.012 0.332084,0.047 0.166042,0.024 0.284643,0.047 0.118602,0.024 0.166042,0.036 l 0,-0.3084 q 0,-0.2728 -0.0593,-0.5337 -0.0593,-0.2728 -0.213483,-0.4744 -0.154182,-0.2135 -0.426965,-0.3321 -0.260923,-0.1305 -0.6878874,-0.1305 -0.5455663,0 -0.960671,0.083 -0.4032446,0.071 -0.6048669,0.1541 l -0.1304615,-0.9132 q 0.2134825,-0.095 0.7116081,-0.1779 0.4981257,-0.095 1.0792723,-0.095 z" />
      <path
         id="path4239"
         style="font-size:11.86013508px;fill:#a80030;fill-opacity:0.94117647;stroke:none;stroke-width:0.2;stroke-miterlimit:4;stroke-dasharray:none"
         d="m 15.801523,1033.1771 q -1.019972,-0.024 -1.446937,-0.4389 -0.426964,-0.4151 -0.426964,-1.2927 l 0,-7.4007 1.102992,-0.1898 0,7.4126 q 0,0.2728 0.04744,0.4507 0.04744,0.1779 0.154181,0.2846 0.106742,0.1068 0.284644,0.1661 0.177902,0.047 0.438825,0.083 l -0.154182,0.9251 z" />
      <path
         id="path4241"
         style="font-size:11.86013508px;fill:#a80030;fill-opacity:0.94117647;stroke:none;stroke-width:0.2;stroke-miterlimit:4;stroke-dasharray:none"
         d="m 19.044529,1033.1771 q -1.019971,-0.024 -1.446936,-0.4389 -0.426965,-0.4151 -0.426965,-1.2927 l 0,-7.4007 1.102992,-0.1898 0,7.4126 q 0,0.2728 0.04744,0.4507 0.04744,0.1779 0.154182,0.2846 0.106741,0.1068 0.284643,0.1661 0.177902,0.047 0.438825,0.083 l -0.154182,0.9251 z" />
    </g>
    <path
       id="rect4209"
       d="m 8.8771491,1021.2973 19.8679469,-11.5758 4.169077,2.3962 -19.860362,11.5985 z"
       style="opacity:0.5;fill:#ecc4a9;fill-opacity:1;stroke:none;stroke-width:0.1;stroke-linecap:round;stroke-linejoin:round;stroke-miterlimit:4;stroke-dasharray:none;stroke-dashoffset:0;stroke-opacity:1" />
    <path
       id="path4197"
       d="m 10.516724,1022.2948 20.027978,-11.5632"
       style="fill:none;fill-rule:evenodd;stroke:#ffffff;stroke-width:0.09707887;stroke-linecap:butt;stroke-linejoin:miter;stroke-miterlimit:4;stroke-dasharray:none;stroke-opacity:1" />
    <path
       id="path5084"
       d="m 40.624999,1039.4247 -18.9375,11.0625 -0.0625,-20.375 18.875,-11.3125 z"
       style="fill:url(#linearGradient5116);fill-opacity:1;fill-rule:evenodd;stroke:none;stroke-width:1px;stroke-linecap:butt;stroke-linejoin:miter;stroke-opacity:1" />
    <g
       transform="matrix(0.24040411,0.14145469,0,0.27911802,0.52859308,730.05805)"
       id="g5000">
      <path
         i:knockout="Off"
         d="m 19.129219,1083.4935 c -0.045,0.047 -0.045,7.506 -0.138,9.453 -0.092,1.574 -0.232,4.957 -3.568,4.957 -3.429,0 -4.263,-3.939 -4.541,-5.652 -0.324,-1.9 -0.324,-3.477 -0.324,-4.17 0,-2.225 0.139,-8.436 5.375,-8.436 1.576,0 2.456,0.465 3.151,0.834 l 0.045,3.014 z m -13.4369998,5.469 c 0,13.066 6.9509998,13.066 7.9699998,13.066 2.873,0 4.727,-1.576 5.514,-4.309 l 0.093,4.123 c 0.881,-0.047 1.761,-0.139 3.197,-0.139 0.51,0 0.926,0 1.298,0.047 0.371,0 0.741,0.045 1.158,0.092 -0.741,-1.482 -1.297,-4.818 -1.297,-12.049 0,-7.043 0,-18.951 0.602,-22.566 -1.667,0.789 -3.105,1.299 -6.256,1.576 1.251,1.344 1.251,2.039 1.251,8.154 -0.879,-0.277 -1.992,-0.602 -3.892,-0.602 -8.2939998,0 -9.6379998,7.23 -9.6379998,12.607"
         id="path4895" />
      <path
         i:knockout="Off"
         d="m 30.822219,1086.5965 c 0.047,-3.846 0.835,-7.275 4.124,-7.275 3.615,0 3.891,3.984 3.799,7.275 l -7.923,0 z m 12.51,0.465 c 0,-5.422 -1.065,-10.752 -7.923,-10.752 -9.452,0 -9.452,10.475 -9.452,12.697 0,9.406 4.216,13.113 11.306,13.113 3.149,0 4.68,-0.461 5.514,-0.695 -0.046,-1.668 0.185,-2.734 0.465,-4.17 -0.975,0.604 -2.226,1.391 -5.006,1.391 -7.229,0 -7.322,-6.582 -7.322,-8.852 l 12.328,0 0.09,-2.732"
         id="path4897" />
      <path
         i:knockout="Off"
         d="m 58.407219,1089.0535 c 0,4.309 -0.787,10.102 -6.162,10.102 -0.742,0 -1.668,-0.141 -2.27,-0.279 -0.093,-1.668 -0.093,-4.541 -0.093,-7.877 0,-3.986 0.416,-6.068 0.742,-7.09 0.972,-3.289 3.15,-3.334 3.566,-3.334 3.522,0 4.217,4.865 4.217,8.478 z m -13.298,5.051 c 0,3.43 0,5.375 -0.556,6.857 1.9,0.742 4.262,1.158 7.09,1.158 1.807,0 7.043,0 9.869,-5.791 1.344,-2.688 1.807,-6.303 1.807,-9.037 0,-1.668 -0.186,-5.328 -1.529,-7.646 -1.296,-2.176 -3.382,-3.289 -5.605,-3.289 -4.449,0 -5.746,3.707 -6.44,5.607 0,-2.363 0.045,-10.611 0.415,-14.828 -3.011,1.391 -4.866,1.621 -6.857,1.807 1.807,0.74 1.807,3.801 1.807,13.764 l 0,11.398"
         id="path4899" />
    </g>
    <path
       transform="translate(0,5)"
       d="m 11.6875,11 c -0.826242,0 -1.28475,0.05742 -1.5625,0.242188 -0.2777497,0.184768 -0.5284825,0.580009 -0.8007812,1.521484 l -5.25,18.125 c -0.1708249,0.590628 0.021709,1.039316 0.4902343,1.4375 C 5.0329784,32.724356 5.7975106,33.000001 6.625,33 l 34.71875,0 c 0.744655,0 1.538941,-0.232575 2.03125,-0.609375 0.492309,-0.3768 0.719298,-0.799984 0.519531,-1.503906 l -5.0625,-17.875 C 38.52278,11.922001 38.224454,11.462814 37.910156,11.253906 37.595859,11.044998 37.112699,11 36.28125,11 L 11.6875,11 Z"
       id="path5806"
       style="display:inline;opacity:0.46240599;fill:url(#linearGradient7658);fill-opacity:1;stroke:none;stroke-width:1.00000024;stroke-linecap:round;stroke-linejoin:miter;stroke-miterlimit:4;stroke-dashoffset:0;stroke-opacity:1" />
    <path
       transform="translate(0,5)"
       d="m 16.125,13.003906 c -0.362612,0 -0.589844,0.210942 -0.589844,0.527344 a 0.44198593,0.44198593 0 0 1 -0.01758,0.123047 l -0.9375,3.25 a 0.44198593,0.44198593 0 0 1 -0.24414,0.28125 c -1.389903,0.620369 -2.504368,1.368471 -3.25586,2.177734 -0.751491,0.809263 -1.1386718,1.661199 -1.1386718,2.542969 0,1.680455 1.4530108,3.311153 3.9980468,4.533203 2.545037,1.22205 6.114654,1.99414 10.060547,1.994141 3.945892,-1e-6 7.51551,-0.772091 10.060547,-1.994141 2.545037,-1.22205 3.998047,-2.852748 3.998047,-4.533203 0,-0.887751 -0.391823,-1.747213 -1.154297,-2.5625 -0.762474,-0.815287 -1.893636,-1.568394 -3.300781,-2.189453 a 0.44198593,0.44198593 0 0 1 -0.246094,-0.28125 l -0.9375,-3.21875 a 0.44198593,0.44198593 0 0 1 -0.01758,-0.123047 c -10e-7,-0.316404 -0.22723,-0.527344 -0.589844,-0.527344 l -15.6875,0 z"
       id="path5857"
       style="display:inline;fill:url(#linearGradient5865);fill-opacity:1;stroke:none;stroke-width:1.00000012;stroke-linecap:round;stroke-linejoin:round;stroke-miterlimit:4;stroke-dasharray:none;stroke-dashoffset:0;stroke-opacity:1" />
    <path
       d="m 36.47083,1034.1153 0,13.8304 m -6.915195,-6.9152 6.915195,6.9152 6.915195,-6.9152"
       style="display:inline;opacity:0.9;fill:none;fill-opacity:0.5;fill-rule:evenodd;stroke:#ffffff;stroke-width:9.22025967;stroke-linecap:round;stroke-linejoin:round;stroke-miterlimit:4;stroke-opacity:1"
       id="path2405" />
    <path
       d="m 29.555635,1041.0305 6.915195,6.9152 6.915195,-6.9152 -6.948526,1.7187 z m 6.915195,-6.9152 0,11.5253"
       style="display:inline;fill:none;fill-opacity:0.5;fill-rule:evenodd;stroke:#000000;stroke-width:4.61012983;stroke-linecap:round;stroke-linejoin:round;stroke-miterlimit:4;stroke-opacity:1"
       id="path2420" />
  </g>
</svg>
